<svg width="97" height="27" viewBox="0 0 97 27" fill="none" xmlns="http://www.w3.org/2000/svg">
<path d="M12.0318 0.650468C15.2213 0.650468 17.9705 1.66207 20.2793 3.68527L17.3159 6.79148C16.4352 6.12501 15.6141 5.64897 14.8524 5.36334C14.1145 5.05391 13.2576 4.89919 12.2817 4.89919C10.4489 4.89919 8.9851 5.62517 7.89019 7.07711C6.79528 8.50525 6.24782 10.6832 6.24782 13.6109C6.24782 16.7766 6.66437 19.0259 7.49745 20.3588C8.33053 21.668 9.62776 22.3225 11.3891 22.3225C12.6269 22.3225 13.7456 22.0488 14.7453 21.5014V15.8959H11.532L10.9607 11.7543H20.4221V24.0006C19.1368 24.8337 17.7206 25.4763 16.1734 25.9286C14.6263 26.3808 13.0791 26.607 11.532 26.607C7.77118 26.607 4.93869 25.5121 3.0345 23.3222C1.13031 21.1086 0.178218 17.8715 0.178218 13.6109C0.178218 10.8974 0.689969 8.56476 1.71347 6.61296C2.76078 4.66117 4.17702 3.18542 5.9622 2.18572C7.77118 1.16222 9.79438 0.650468 12.0318 0.650468ZM39.2926 20.5017C39.2926 21.2157 39.3878 21.7394 39.5782 22.0726C39.7924 22.4058 40.1257 22.6558 40.5779 22.8224L39.3997 26.4998C38.2334 26.4046 37.2813 26.1547 36.5434 25.7501C35.8055 25.3216 35.2343 24.6552 34.8296 23.7507C33.5919 25.6549 31.6877 26.607 29.1171 26.607C27.2367 26.607 25.7371 26.0595 24.6184 24.9646C23.4997 23.8697 22.9404 22.4415 22.9404 20.6802C22.9404 18.6094 23.702 17.0265 25.2254 15.9316C26.7487 14.8367 28.9505 14.2892 31.8305 14.2892H33.7585V13.468C33.7585 12.3493 33.5205 11.5877 33.0445 11.183C32.5684 10.7546 31.7353 10.5404 30.5452 10.5404C29.9264 10.5404 29.1766 10.6356 28.2959 10.826C27.4152 10.9926 26.5107 11.2306 25.5824 11.5401L24.2971 7.82689C25.4872 7.37464 26.7011 7.02951 27.9389 6.79148C29.2004 6.55346 30.3667 6.43445 31.4378 6.43445C34.1513 6.43445 36.1388 6.9938 37.4003 8.11251C38.6618 9.23123 39.2926 10.9093 39.2926 13.1467V20.5017ZM30.7594 22.5725C32.0448 22.5725 33.0445 21.9655 33.7585 20.7516V17.3954H32.3661C31.0808 17.3954 30.1168 17.6216 29.4741 18.0738C28.8552 18.5261 28.5458 19.2282 28.5458 20.1803C28.5458 20.942 28.7362 21.5371 29.1171 21.9655C29.5217 22.3701 30.0692 22.5725 30.7594 22.5725ZM55.6752 25.1074C54.985 25.5835 54.1757 25.9524 53.2474 26.2142C52.3429 26.476 51.4384 26.607 50.5339 26.607C46.3923 26.5832 44.3215 24.2981 44.3215 19.7519V10.9688H41.6437V7.04141H44.3215V2.9355L49.9627 2.29283V7.04141H54.3185L53.7115 10.9688H49.9627V19.6805C49.9627 20.5612 50.1055 21.1919 50.3911 21.5728C50.6767 21.9536 51.129 22.144 51.7478 22.144C52.3905 22.144 53.0689 21.9417 53.7829 21.5371L55.6752 25.1074ZM69.4476 25.1074C68.7573 25.5835 67.948 25.9524 67.0198 26.2142C66.1153 26.476 65.2108 26.607 64.3063 26.607C60.1647 26.5832 58.0939 24.2981 58.0939 19.7519V10.9688H55.4161V7.04141H58.0939V2.9355L63.735 2.29283V7.04141H68.0909L67.4839 10.9688H63.735V19.6805C63.735 20.5612 63.8778 21.1919 64.1635 21.5728C64.4491 21.9536 64.9013 22.144 65.5202 22.144C66.1629 22.144 66.8412 21.9417 67.5553 21.5371L69.4476 25.1074ZM78.9149 6.43445C81.8188 6.43445 84.0919 7.32704 85.7343 9.11221C87.3766 10.8736 88.1978 13.349 88.1978 16.5386C88.1978 18.5618 87.817 20.335 87.0553 21.8584C86.3174 23.3579 85.2463 24.5243 83.842 25.3573C82.4615 26.1904 80.8191 26.607 78.9149 26.607C76.0348 26.607 73.7617 25.7263 72.0955 23.9649C70.4532 22.1797 69.632 19.6924 69.632 16.5029C69.632 14.4796 70.0009 12.7183 70.7388 11.2187C71.5005 9.69537 72.5716 8.51715 73.9521 7.68407C75.3564 6.85099 77.0107 6.43445 78.9149 6.43445ZM78.9149 10.5761C77.7724 10.5761 76.9155 11.064 76.3442 12.0399C75.773 12.992 75.4874 14.4796 75.4874 16.5029C75.4874 18.5737 75.7611 20.0851 76.3085 21.0372C76.8798 21.9893 77.7486 22.4653 78.9149 22.4653C80.0574 22.4653 80.9143 21.9893 81.4856 21.0372C82.0568 20.0613 82.3424 18.5618 82.3424 16.5386C82.3424 14.4677 82.0568 12.9563 81.4856 12.0042C80.9381 11.0521 80.0812 10.5761 78.9149 10.5761Z" fill="#1E270B"/>
<path d="M93.6242 20.1446C94.5049 20.1446 95.2547 20.4659 95.8735 21.1086C96.5162 21.7275 96.8375 22.4772 96.8375 23.3579C96.8375 24.2624 96.5162 25.036 95.8735 25.6787C95.2547 26.2975 94.5049 26.607 93.6242 26.607C92.7197 26.607 91.9461 26.2975 91.3035 25.6787C90.6846 25.036 90.3752 24.2624 90.3752 23.3579C90.3752 22.4772 90.6846 21.7275 91.3035 21.1086C91.9461 20.4659 92.7197 20.1446 93.6242 20.1446Z" fill="#B6F829"/>
</svg>
